<svg width="2997" height="629" viewBox="0 0 2997 629" fill="none" xmlns="http://www.w3.org/2000/svg">
<path d="M284.08 38.1404C313.35 -12.7096 386.66 -12.7096 415.93 38.1404L689.73 513.84C718.95 564.61 682.34 628 623.81 628H76.2001C17.6601 628 -18.9498 564.6 10.2702 513.84L284.08 38.1404Z" fill="url(#paint0_linear_2086_13102)"/>
<path d="M550.5 453C549.18 453 547.87 453.06 546.57 453.15L395.93 197.89C401.66 189.16 405 178.72 405 167.5C405 136.85 380.15 112 349.5 112C318.85 112 294 136.85 294 167.5C294 180.03 298.16 191.59 305.16 200.87L155.06 454.01C151.64 453.35 148.11 452.99 144.5 452.99C113.85 452.99 89 477.84 89 508.49C89 539.14 113.85 563.99 144.5 563.99C166.55 563.99 185.6 551.12 194.55 532.49H500.44C509.39 551.12 528.44 563.99 550.49 563.99C581.14 563.99 605.99 539.14 605.99 508.49C605.99 477.84 581.14 452.99 550.49 452.99L550.5 453ZM198.45 495.5C196.41 486.99 192.41 479.25 186.95 472.77L254.44 358.94L335.03 495.5H198.44H198.45ZM496.55 495.5H378.01L275.99 322.63L336.04 221.35C340.35 222.42 344.86 223 349.51 223C355.35 223 360.98 222.09 366.27 220.42L512.45 468.12C504.74 475.39 499.11 484.84 496.55 495.5Z" fill="white"/>
<path d="M2891.82 492.06C2869.13 492.06 2848.73 487 2830.64 476.88C2812.55 466.453 2798.29 452.347 2787.86 434.56C2777.43 416.467 2772.22 395.92 2772.22 372.92C2772.22 351.453 2776.97 331.827 2786.48 314.04C2795.99 295.947 2809.33 281.687 2826.5 271.26C2843.67 260.527 2863.61 255.16 2886.3 255.16C2908.99 255.16 2928.47 260.22 2944.72 270.34C2961.28 280.153 2974.01 293.647 2982.9 310.82C2992.1 327.687 2996.7 346.547 2996.7 367.4V385.8H2807.64L2815.92 367.4C2815 383.347 2817.61 397.607 2823.74 410.18C2829.87 422.753 2838.77 432.873 2850.42 440.54C2862.07 447.9 2875.72 451.58 2891.36 451.58C2905.47 451.58 2918.19 448.513 2929.54 442.38C2941.19 436.247 2950.39 427.047 2957.14 414.78L2992.1 432.72C2982.29 452.04 2968.64 466.76 2951.16 476.88C2933.68 487 2913.9 492.06 2891.82 492.06ZM2818.22 356.36H2951.16C2950.55 344.4 2947.33 333.82 2941.5 324.62C2935.98 315.42 2928.31 308.367 2918.5 303.46C2908.99 298.553 2898.11 296.1 2885.84 296.1C2873.27 296.1 2862.07 298.707 2852.26 303.92C2842.75 309.133 2835.09 316.34 2829.26 325.54C2823.74 334.74 2820.06 345.013 2818.22 356.36Z" fill="#262D38"/>
<path d="M2642.38 492.06C2621.53 492.06 2603.13 487.92 2587.18 479.64C2571.54 471.36 2559.43 458.787 2550.84 441.92L2585.8 422.6C2591.63 433.947 2598.99 441.92 2607.88 446.52C2617.08 451.12 2627.97 453.42 2640.54 453.42C2649.44 453.42 2657.26 452.347 2664 450.2C2670.75 447.747 2676.12 444.22 2680.1 439.62C2684.09 435.02 2686.08 429.5 2686.08 423.06C2686.08 415.087 2682.86 409.107 2676.42 405.12C2670.29 401.133 2662.32 398.067 2652.5 395.92C2643 393.467 2632.57 391.167 2621.22 389.02C2610.18 386.567 2599.76 383.04 2589.94 378.44C2580.44 373.84 2572.46 367.4 2566.02 359.12C2559.89 350.84 2556.82 339.647 2556.82 325.54C2556.82 312.353 2560.35 300.7 2567.4 290.58C2574.76 280.153 2584.73 272.027 2597.3 266.2C2610.18 260.067 2624.75 257 2641 257C2655.11 257 2667.53 258.993 2678.26 262.98C2689.3 266.967 2698.66 272.487 2706.32 279.54C2714.3 286.287 2720.74 293.953 2725.64 302.54L2690.68 322.32C2685.78 312.507 2679.03 305.607 2670.44 301.62C2661.86 297.633 2652.35 295.64 2641.92 295.64C2634.87 295.64 2628.28 296.867 2622.14 299.32C2616.32 301.467 2611.56 304.687 2607.88 308.98C2604.2 313.273 2602.36 318.487 2602.36 324.62C2602.36 331.98 2605.43 337.653 2611.56 341.64C2618 345.627 2625.98 348.847 2635.48 351.3C2645.3 353.753 2655.72 356.207 2666.76 358.66C2678.11 361.113 2688.54 364.64 2698.04 369.24C2707.86 373.533 2715.83 379.82 2721.96 388.1C2728.4 396.38 2731.62 407.727 2731.62 422.14C2731.62 436.247 2727.48 448.667 2719.2 459.4C2711.23 469.827 2700.34 477.953 2686.54 483.78C2673.05 489.3 2658.33 492.06 2642.38 492.06Z" fill="#262D38"/>
<path d="M2441.7 261.6H2487.24V487H2441.7V261.6ZM2464.24 216.98C2459.02 216.98 2454.12 215.753 2449.52 213.3C2444.92 210.54 2441.24 206.86 2438.48 202.26C2435.72 197.66 2434.34 192.6 2434.34 187.08C2434.34 181.56 2435.72 176.5 2438.48 171.9C2441.24 167.3 2444.92 163.62 2449.52 160.86C2454.12 158.1 2459.02 156.72 2464.24 156.72C2469.76 156.72 2474.66 158.1 2478.96 160.86C2483.56 163.62 2487.08 167.3 2489.54 171.9C2492.3 176.5 2493.68 181.56 2493.68 187.08C2493.68 192.6 2492.3 197.66 2489.54 202.26C2487.08 206.86 2483.56 210.54 2478.96 213.3C2474.66 215.753 2469.76 216.98 2464.24 216.98Z" fill="#262D38"/>
<path d="M2029.99 451.12L1970.65 178.8H2017.57L2071.39 436.86C2072.31 440.233 2073.23 442.84 2074.15 444.68C2075.38 446.213 2076.91 446.98 2078.75 446.98C2080.59 446.98 2082.13 446.213 2083.35 444.68C2084.89 443.147 2085.96 440.54 2086.57 436.86L2137.63 217.44C2140.7 203.027 2145.91 192.6 2153.27 186.16C2160.94 179.413 2169.99 176.04 2180.41 176.04C2191.15 176.04 2200.19 179.413 2207.55 186.16C2215.22 192.6 2220.59 202.873 2223.65 216.98L2276.55 436.86C2277.47 439.927 2278.39 442.38 2279.31 444.22C2280.54 445.753 2282.23 446.52 2284.37 446.52C2286.21 446.52 2287.59 445.753 2288.51 444.22C2289.74 442.38 2290.66 439.927 2291.27 436.86L2340.95 178.8H2387.87L2333.13 448.36C2330.37 462.16 2325.01 473.047 2317.03 481.02C2309.37 488.687 2299.25 492.52 2286.67 492.52C2274.41 492.52 2264.13 488.993 2255.85 481.94C2247.88 474.58 2242.05 463.847 2238.37 449.74L2185.01 227.1C2184.71 224.953 2184.09 223.573 2183.17 222.96C2182.56 222.04 2181.64 221.58 2180.41 221.58C2179.49 221.58 2178.57 222.04 2177.65 222.96C2177.04 223.573 2176.43 224.953 2175.81 227.1L2123.83 452.5C2121.07 465.38 2115.4 475.347 2106.81 482.4C2098.53 489.453 2088.87 492.98 2077.83 492.98C2065.87 492.98 2055.6 489.453 2047.01 482.4C2038.73 475.04 2033.06 464.613 2029.99 451.12Z" fill="#262D38"/>
<path d="M1947.11 487H1890.99L1819.23 408.34C1810.03 397.913 1805.43 386.413 1805.43 373.84C1805.43 361.88 1810.19 350.686 1819.69 340.26L1891.91 261.6H1947.57L1850.51 367.4C1849.29 368.32 1848.21 369.393 1847.29 370.62C1846.68 371.54 1846.37 372.613 1846.37 373.84C1846.37 374.76 1846.68 375.833 1847.29 377.06C1848.21 377.98 1849.29 379.053 1850.51 380.28L1947.11 487ZM1781.51 487H1735.97V157.64H1781.51V487ZM1773.69 391.32V355.44H1824.29V391.32H1773.69Z" fill="#262D38"/>
<path d="M1580.06 492.06C1564.11 492.367 1548.93 489.453 1534.52 483.32C1520.11 477.187 1507.53 468.753 1496.8 458.02C1486.07 446.98 1477.63 434.253 1471.5 419.84C1465.37 405.427 1462.3 390.093 1462.3 373.84C1462.3 357.587 1465.37 342.407 1471.5 328.3C1477.63 313.887 1486.07 301.313 1496.8 290.58C1507.53 279.54 1520.11 271.107 1534.52 265.28C1548.93 259.147 1564.11 256.08 1580.06 256.08C1600.91 256.08 1620.23 260.833 1638.02 270.34C1655.81 279.847 1669.91 294.873 1680.34 315.42L1642.62 336.58C1635.87 324.007 1626.98 314.653 1615.94 308.52C1605.21 302.387 1593.25 299.32 1580.06 299.32C1566.87 299.32 1554.76 302.693 1543.72 309.44C1532.99 316.187 1524.25 325.233 1517.5 336.58C1511.06 347.927 1507.84 360.347 1507.84 373.84C1507.84 387.64 1511.06 400.213 1517.5 411.56C1524.25 422.907 1532.99 432.107 1543.72 439.16C1554.76 445.907 1566.87 449.28 1580.06 449.28C1593.25 449.28 1605.21 446.213 1615.94 440.08C1626.98 433.64 1635.87 424.287 1642.62 412.02L1680.34 432.72C1669.91 452.96 1655.81 467.987 1638.02 477.8C1620.23 487.307 1600.91 492.06 1580.06 492.06Z" fill="#262D38"/>
<path d="M1284.37 492.52C1262.59 492.52 1243.12 487.153 1225.95 476.42C1209.08 465.687 1195.74 451.427 1185.93 433.64C1176.11 415.547 1171.21 395.613 1171.21 373.84C1171.21 352.373 1176.42 332.747 1186.85 314.96C1197.58 296.867 1211.99 282.607 1230.09 272.18C1248.18 261.447 1268.57 256.08 1291.27 256.08C1313.96 256.08 1334.35 261.293 1352.45 271.72C1370.54 281.84 1384.8 295.793 1395.23 313.58C1405.96 331.367 1411.33 351.453 1411.33 373.84V487H1368.09V402.82L1383.73 390.86C1383.73 409.873 1379.43 427.047 1370.85 442.38C1362.57 457.713 1350.91 469.98 1335.89 479.18C1321.17 488.073 1303.99 492.52 1284.37 492.52ZM1291.27 449.28C1305.37 449.28 1318.1 445.907 1329.45 439.16C1340.79 432.413 1349.69 423.367 1356.13 412.02C1362.57 400.367 1365.79 387.793 1365.79 374.3C1365.79 360.5 1362.57 347.927 1356.13 336.58C1349.69 325.233 1340.79 316.187 1329.45 309.44C1318.1 302.387 1305.37 298.86 1291.27 298.86C1277.16 298.86 1264.43 302.387 1253.09 309.44C1242.05 316.187 1233.15 325.233 1226.41 336.58C1219.97 347.927 1216.75 360.5 1216.75 374.3C1216.75 387.793 1219.97 400.367 1226.41 412.02C1233.15 423.367 1242.05 432.413 1253.09 439.16C1264.43 445.907 1277.16 449.28 1291.27 449.28Z" fill="#262D38"/>
<path d="M1066.59 487H1021.05V352.68C1021.05 334.28 1024.42 317.873 1031.17 303.46C1038.22 289.047 1048.34 277.7 1061.53 269.42C1075.02 261.14 1091.58 257 1111.21 257C1118.57 257 1125.62 257.767 1132.37 259.3C1139.42 260.527 1145.86 262.52 1151.69 265.28V310.36C1146.17 306.987 1140.19 304.533 1133.75 303C1127.62 301.467 1121.48 300.7 1115.35 300.7C1100.32 300.7 1088.36 305.607 1079.47 315.42C1070.88 324.927 1066.59 337.96 1066.59 354.52V487Z" fill="#262D38"/>
<path d="M853.74 178.8H900.66V487H853.74V178.8ZM995.42 178.8V222.04H759.44V178.8H995.42Z" fill="#262D38"/>
<defs>
<linearGradient id="paint0_linear_2086_13102" x1="222.58" y1="-17.5496" x2="374.5" y2="661.24" gradientUnits="userSpaceOnUse">
<stop stop-color="#B47AFF"/>
<stop offset="0.42" stop-color="#7F7CFF"/>
<stop offset="1" stop-color="#05E7E7"/>
</linearGradient>
</defs>
</svg>
