<svg width="770" height="770" viewBox="0 0 770 770" fill="none" xmlns="http://www.w3.org/2000/svg">
<path d="M319.08 109.14C348.35 58.2901 421.66 58.2901 450.93 109.14L724.73 584.84C753.95 635.61 717.34 698.999 658.81 699H111.2C52.6599 698.999 16.0503 635.6 45.27 584.84L319.08 109.14ZM384.5 183C353.851 183 329.001 207.85 329 238.5C329 251.029 333.16 262.59 340.16 271.87L190.06 525.01C186.64 524.35 183.11 523.99 179.5 523.99C148.851 523.99 124.001 548.84 124 579.49C124 610.14 148.85 634.99 179.5 634.99C201.55 634.99 220.6 622.12 229.55 603.49H535.44C544.39 622.12 563.44 634.99 585.49 634.99C616.14 634.99 640.99 610.14 640.99 579.49C640.99 548.84 616.14 523.99 585.49 523.99L585.5 524C584.18 524 582.87 524.06 581.57 524.15L430.93 268.89C436.66 260.16 440 249.72 440 238.5C440 207.85 415.15 183 384.5 183ZM547.45 539.12C539.74 546.39 534.11 555.84 531.55 566.5H413.01L310.99 393.63L371.04 292.35C375.35 293.42 379.86 294 384.51 294C390.35 293.999 395.98 293.09 401.27 291.42L547.45 539.12ZM370.03 566.5H233.45C231.41 557.99 227.41 550.25 221.95 543.77L289.44 429.94L370.03 566.5Z" fill="url(#paint0_linear_2079_12949)"/>
<defs>
<linearGradient id="paint0_linear_2079_12949" x1="257.58" y1="53.4499" x2="409.5" y2="732.24" gradientUnits="userSpaceOnUse">
<stop stop-color="#B47AFF"/>
<stop offset="0.42" stop-color="#7F7CFF"/>
<stop offset="1" stop-color="#05E7E7"/>
</linearGradient>
</defs>
</svg>
